<?xml version="1.0" encoding="UTF-8"?>
<svg xmlns="http://www.w3.org/2000/svg" xmlns:xlink="http://www.w3.org/1999/xlink" width="30px" height="30px" viewBox="0 0 30 30" version="1.1">
<g id="surface1">
<path style=" stroke:none;fill-rule:evenodd;fill:rgb(0%,0%,0%);fill-opacity:1;" d="M 28.125 3.75 C 28.125 2.714844 27.285156 1.875 26.25 1.875 L 3.75 1.875 C 2.714844 1.875 1.875 2.714844 1.875 3.75 L 1.875 26.25 C 1.875 27.285156 2.714844 28.125 3.75 28.125 L 26.25 28.125 C 27.285156 28.125 28.125 27.285156 28.125 26.25 Z M 0 3.75 C 0 1.679688 1.679688 0 3.75 0 L 26.25 0 C 28.320312 0 30 1.679688 30 3.75 L 30 26.25 C 30 28.320312 28.320312 30 26.25 30 L 3.75 30 C 1.679688 30 0 28.320312 0 26.25 Z M 8.4375 14.0625 C 7.917969 14.0625 7.5 14.480469 7.5 15 C 7.5 15.519531 7.917969 15.9375 8.4375 15.9375 L 19.300781 15.9375 L 15.273438 19.960938 C 14.90625 20.328125 14.90625 20.921875 15.273438 21.289062 C 15.640625 21.65625 16.234375 21.65625 16.601562 21.289062 L 22.226562 15.664062 C 22.402344 15.488281 22.5 15.25 22.5 15 C 22.5 14.75 22.402344 14.511719 22.226562 14.335938 L 16.601562 8.710938 C 16.234375 8.34375 15.640625 8.34375 15.273438 8.710938 C 14.90625 9.078125 14.90625 9.671875 15.273438 10.039062 L 19.300781 14.0625 Z M 8.4375 14.0625 "/>
</g>
</svg>
