<?xml version="1.0" encoding="UTF-8"?>
<svg xmlns="http://www.w3.org/2000/svg" xmlns:xlink="http://www.w3.org/1999/xlink" width="30px" height="30px" viewBox="0 0 30 30" version="1.1">
<g id="surface1">
<path style=" stroke:none;fill-rule:nonzero;fill:rgb(0%,0%,0%);fill-opacity:1;" d="M 22.5 1.875 C 23.535156 1.875 24.375 2.714844 24.375 3.75 L 24.375 28.125 L 27.1875 28.125 C 27.707031 28.125 28.125 28.542969 28.125 29.0625 C 28.125 29.582031 27.707031 30 27.1875 30 L 2.8125 30 C 2.292969 30 1.875 29.582031 1.875 29.0625 C 1.875 28.542969 2.292969 28.125 2.8125 28.125 L 5.625 28.125 L 5.625 3.75 C 5.625 2.714844 6.464844 1.875 7.5 1.875 Z M 18.75 18.75 C 19.785156 18.75 20.625 17.910156 20.625 16.875 C 20.625 15.839844 19.785156 15 18.75 15 C 17.714844 15 16.875 15.839844 16.875 16.875 C 16.875 17.910156 17.714844 18.75 18.75 18.75 Z M 18.75 18.75 "/>
</g>
</svg>
