<?xml version="1.0" encoding="UTF-8"?>
<svg xmlns="http://www.w3.org/2000/svg" xmlns:xlink="http://www.w3.org/1999/xlink" width="30px" height="30px" viewBox="0 0 30 30" version="1.1">
<g id="surface1">
<path style=" stroke:none;fill-rule:nonzero;fill:rgb(0%,0%,0%);fill-opacity:1;" d="M 15.664062 2.148438 C 15.488281 1.972656 15.25 1.875 15 1.875 C 14.75 1.875 14.511719 1.972656 14.335938 2.148438 L 3.085938 13.398438 C 2.910156 13.574219 2.8125 13.8125 2.8125 14.0625 L 2.8125 27.1875 C 2.8125 27.707031 3.230469 28.125 3.75 28.125 L 12.1875 28.125 C 12.707031 28.125 13.125 27.707031 13.125 27.1875 L 13.125 19.6875 L 16.875 19.6875 L 16.875 27.1875 C 16.875 27.707031 17.292969 28.125 17.8125 28.125 L 26.25 28.125 C 26.769531 28.125 27.1875 27.707031 27.1875 27.1875 L 27.1875 14.0625 C 27.1875 13.8125 27.089844 13.574219 26.914062 13.398438 L 24.375 10.863281 L 24.375 4.6875 C 24.375 4.167969 23.957031 3.75 23.4375 3.75 L 21.5625 3.75 C 21.042969 3.75 20.625 4.167969 20.625 4.6875 L 20.625 7.113281 Z M 4.6875 26.25 L 4.6875 14.449219 L 15 4.136719 L 25.3125 14.449219 L 25.3125 26.25 L 18.75 26.25 L 18.75 18.75 C 18.75 18.230469 18.332031 17.8125 17.8125 17.8125 L 12.1875 17.8125 C 11.667969 17.8125 11.25 18.230469 11.25 18.75 L 11.25 26.25 Z M 4.6875 26.25 "/>
</g>
</svg>
