<?xml version="1.0" encoding="UTF-8"?>
<svg xmlns="http://www.w3.org/2000/svg" xmlns:xlink="http://www.w3.org/1999/xlink" width="50px" height="50px" viewBox="0 0 50 50" version="1.1">
<g id="surface1">
<path style=" stroke:none;fill-rule:evenodd;fill:rgb(0%,0%,0%);fill-opacity:1;" d="M 25 3.125 C 25.863281 3.125 26.5625 3.824219 26.5625 4.6875 L 26.5625 41.539062 L 36.394531 31.707031 C 37.003906 31.09375 37.996094 31.09375 38.605469 31.707031 C 39.21875 32.316406 39.21875 33.308594 38.605469 33.917969 L 26.105469 46.417969 C 25.8125 46.710938 25.414062 46.878906 25 46.878906 C 24.585938 46.878906 24.1875 46.710938 23.894531 46.417969 L 11.394531 33.917969 C 10.78125 33.308594 10.78125 32.316406 11.394531 31.707031 C 12.003906 31.09375 12.996094 31.09375 13.605469 31.707031 L 23.4375 41.539062 L 23.4375 4.6875 C 23.4375 3.824219 24.136719 3.125 25 3.125 Z M 25 3.125 "/>
</g>
</svg>
